# xmcd
#
# Track frame offsets: 
#        150
#        12420
#        24693
#        36648
#        50140
#        62465
#        72998
#        83425
#        95798
#        109510
#        120018
#        131570
#        144275
#        156228
#        168183
#        177278
#        189083
#        199645
#        211695
#        224288
#        236315
#        248933
#        262278
#        275340
#        286683
#        298670
#        310390
#        320985
#        333043
#
# Disc length: 4608 seconds
#
# Revision: 0
# Processed by: cddbd v1.5.2PL0 Copyright (c) Steve Scherf et al.
# Submitted via: ExactAudioCopy v0.95b4
#
DISCID=a511fe1d
DTITLE=Various Artist - EMI Music Publishing Country Hits [CD1: 1949-1968)
DYEAR=1994
DGENRE=Country
TTITLE0=Hank Williams \\ Lovesick Blues
TTITLE1=Hank Thompson \\ Wild Side Of Life
TTITLE2=Faron Young - Goin' Steady
TTITLE3=The Davis Sisters - I Forgot More Than You'll Ever Know
TTITLE4=Carl Smith - This Orchid Means Goodbye
TTITLE5=Webb Pierce - More And More
TTITLE6=Faron Young - Live Fast, Love Hard, Die Young
TTITLE7=The Louvin Brothers - My Baby's Gone
TTITLE8=Ray Price - Under Your Spell Again
TTITLE9=Jim Reeves - He'll Have To Go
TTITLE10=Warren Smith - I Don't Believe I'll Fall In Love Today
TTITLE11=Johnny Horton - North To Alaska
TTITLE12=The Browns - Scarlet Ribbons (For Her Hair)
TTITLE13=Buck Owens - Foolin' "Round
TTITLE14=Warren Smith - Odds And Ends (Bits And Pieces)
TTITLE15=Wanda Jackson - Right Or Wrong
TTITLE16=Buck Owens - Under The Influence Of Love
TTITLE17=Bobby Bare - 500 Miles Away From Home
TTITLE18=David Houston - Mountain Of Love
TTITLE19=Patsy Cline - He Called Me Baby
TTITLE20=Brenda Lee - Too Many Rivers
TTITLE21=David Houston - Almost Persuaded
TTITLE22=Jim Reeves - Distant Drums
TTITLE23=Wynn Stewart - It's Such A Pretty World Today
TTITLE24=Waylon Jennings and Anita Carter - I Got You
TTITLE25=Porter Wagoner and Dolly Parton - The Last Thing On My Mind
TTITLE26=Waylon Jennings - The Only Daddy That'll Walk The Line
TTITLE27=Tammy Wynette - Stand By Your Man
TTITLE28=Tammy Wynette - Take Me To Your World
EXTD=
EXTT0=
EXTT1=
EXTT2=
EXTT3=
EXTT4=
EXTT5=
EXTT6=
EXTT7=
EXTT8=
EXTT9=
EXTT10=
EXTT11=
EXTT12=
EXTT13=
EXTT14=
EXTT15=
EXTT16=
EXTT17=
EXTT18=
EXTT19=
EXTT20=
EXTT21=
EXTT22=
EXTT23=
EXTT24=
EXTT25=
EXTT26=
EXTT27=
EXTT28=
PLAYORDER=
